<svg width="140" height="140" viewBox="0 0 171 171" fill="none" xmlns="http://www.w3.org/2000/svg">
<path d="M85.4299 0.000244141C38.2487 0.000244141 6.10352e-05 38.2489 6.10352e-05 85.4301C6.10352e-05
 125.493 27.5836 159.112 64.7935 168.345V111.537H47.1778V85.4301H64.7935V74.1807C64.7935 45.1038 
 77.9531 31.6264 106.5 31.6264C111.913 31.6264 121.252 32.6891 125.073 33.7484V57.4125C123.057 
 57.2006 119.554 57.0947 115.204 57.0947C101.197 57.0947 95.784 62.4016 95.784 
 76.1968V85.4301H123.689L118.894 111.537H95.784V170.235C138.085 165.126 170.863
  129.109 170.863 85.4301C170.86 38.2489 132.611 0.000244141 85.4299 0.000244141Z" fill="#000"/>
</svg>
