<svg width="140" height="140" viewBox="0 0 175 175" fill="none" xmlns="http://www.w3.org/2000/svg">
<g clip-path="url(#clip0_2135_494)">
<path d="M82.0693 14.7789C103.997 14.7789 106.594 14.8751 115.218 15.2598C123.232 15.6124 127.56 16.9589 130.445 18.0809C134.26 19.5556 137.017 21.3508 139.87 24.204C142.756 27.0893 144.519 29.8142 145.994 33.6292C147.116 36.5144 148.462 40.8744 148.815 48.8569C149.199 57.5126 149.296 60.1093 149.296 82.0052C149.296 103.933 149.199 106.53 148.815 115.153C148.462 123.168 147.116 127.496 145.994 130.381C144.519 134.196 142.724 136.953 139.87 139.806C136.985 142.692 134.26 144.455 130.445 145.929C127.56 147.052 123.2 148.398 115.218 148.751C106.562 149.135 103.965 149.231 82.0693 149.231C60.1414 149.231 57.5447 149.135 48.921 148.751C40.9064 148.398 36.5785 147.052 33.6933 145.929C29.8784 144.455 27.1213 142.66 24.2682 139.806C21.3829 136.921 19.6197 134.196 18.145 130.381C17.023 127.496 15.6765 123.136 15.3239 115.153C14.9392 106.498 14.843 103.901 14.843 82.0052C14.843 60.0773 14.9392 57.4806 15.3239 48.8569C15.6765 40.8423 17.023 36.5144 18.145 33.6292C19.6197 29.8142 21.415 27.0572 24.2682 24.204C27.1534 21.3188 29.8784 19.5556 33.6933 18.0809C36.5785 16.9589 40.9385 15.6124 48.921 15.2598C57.5447 14.8751 60.1414 14.7789 82.0693 14.7789ZM82.0693 0C59.7888 0 56.9997 0.0961749 48.2478 0.480875C39.5279 0.865575 33.533 2.27614 28.3396 4.29581C22.9217 6.41166 18.3374 9.20074 13.7851 13.7851C9.20074 18.3374 6.41166 22.9217 4.29581 28.3075C2.27614 33.533 0.865575 39.4958 0.480875 48.2157C0.096175 56.9997 0 59.7888 0 82.0693C0 104.35 0.096175 107.139 0.480875 115.891C0.865575 124.611 2.27614 130.606 4.29581 135.799C6.41166 141.217 9.20074 145.801 13.7851 150.354C18.3374 154.906 22.9217 157.727 28.3075 159.811C33.533 161.83 39.4959 163.241 48.2157 163.626C56.9676 164.01 59.7567 164.107 82.0372 164.107C104.318 164.107 107.107 164.01 115.859 163.626C124.579 163.241 130.574 161.83 135.767 159.811C141.153 157.727 145.737 154.906 150.289 150.354C154.842 145.801 157.663 141.217 159.747 135.831C161.766 130.606 163.177 124.643 163.562 115.923C163.946 107.171 164.042 104.382 164.042 82.1014C164.042 59.8208 163.946 57.0317 163.562 48.2798C163.177 39.56 161.766 33.5651 159.747 28.3716C157.727 22.9217 154.938 18.3374 150.354 13.7851C145.801 9.2328 141.217 6.41166 135.831 4.32787C130.606 2.3082 124.643 0.897633 115.923 0.512933C107.139 0.096175 104.35 0 82.0693 0Z" fill="white"/>
<path d="M82.0694 39.9128C58.7951 39.9128 39.9127 58.7951 39.9127 82.0695C39.9127 105.344 58.7951 124.226 82.0694 124.226C105.344 124.226 124.226 105.344 124.226 82.0695C124.226 58.7951 105.344 39.9128 82.0694 39.9128ZM82.0694 109.415C66.9699 109.415 54.7237 97.1689 54.7237 82.0695C54.7237 66.97 66.9699 54.7237 82.0694 54.7237C97.1689 54.7237 109.415 66.97 109.415 82.0695C109.415 97.1689 97.1689 109.415 82.0694 109.415Z" fill="white"/>
<path d="M135.735 38.2579C135.735 43.7079 131.311 48.0998 125.893 48.0998C120.443 48.0998 116.051 43.6758 116.051 38.2579C116.051 32.808 120.475 28.416 125.893 28.416C131.311 28.416 135.735 32.8401 135.735 38.2579Z" fill="white"/>
</g>
<defs>
<clipPath id="clip0_2135_494">
<rect width="164.139" height="164.139" fill="white"/>
</clipPath>
</defs>
</svg>
