<svg width="140" height="140" viewBox="0 0 140 128" fill="none" xmlns="http://www.w3.org/2000/svg">
<path d="M129.164 0.907776H10.2981C4.60406 0.907776 -0.000183105 4.97492 -0.000183105 
10.0034V117.992C-0.000183105 123.021 4.60406 127.113 10.2981 127.113H129.164C134.858 
127.113 139.489 123.021 139.489 118.017V10.0034C139.489 4.97492 134.858 0.907776 
129.164 0.907776ZM41.3835 108.453H20.678V48.2099H41.3835V108.453ZM31.0308 40.0017C24.3832 
40.0017 19.0162 35.1457 19.0162 29.1559C19.0162 23.1662 24.3832 18.3102 31.0308 
18.3102C37.6511 18.3102 43.0181 23.1662 43.0181 29.1559C43.0181 35.1211 37.6511 
40.0017 31.0308 40.0017ZM118.866 108.453H98.1873V79.1695C98.1873 72.1937 98.0511
 63.1967 87.4259 63.1967C76.6645 63.1967 75.0299 70.8134 75.0299 
 78.6765V108.453H54.3789V48.2099H74.2126V56.4428H74.485C77.2366 51.7101 83.9932 
 46.7063 94.0462 46.7063C114.997 46.7063 118.866 59.1789 118.866 75.3982V108.453Z" fill="#000"/>
</svg>
