<?xml version="1.0" encoding="UTF-8" standalone="no"?>
<svg
   viewBox="0 0 102 102"
   width="102"
   height="102"
   version="1.1"
   id="svg1"
   sodipodi:docname="icons8-youtube.svg"
   inkscape:version="1.4 (86a8ad7, 2024-10-11)"
   xmlns:inkscape="http://www.inkscape.org/namespaces/inkscape"
   xmlns:sodipodi="http://sodipodi.sourceforge.net/DTD/sodipodi-0.dtd"
   xmlns="http://www.w3.org/2000/svg"
   xmlns:svg="http://www.w3.org/2000/svg">
  <defs
     id="defs1" />
  <sodipodi:namedview
     id="namedview1"
     pagecolor="#ffffff"
     bordercolor="#000000"
     borderopacity="0.25"
     inkscape:showpageshadow="2"
     inkscape:pageopacity="0.0"
     inkscape:pagecheckerboard="0"
     inkscape:deskcolor="#d1d1d1"
     inkscape:zoom="2.8531759"
     inkscape:cx="-66.06673"
     inkscape:cy="97.26004"
     inkscape:window-width="1920"
     inkscape:window-height="1009"
     inkscape:window-x="-8"
     inkscape:window-y="-8"
     inkscape:window-maximized="1"
     inkscape:current-layer="svg1" />
  <path
     d="M 98.20863,26.71875 C 97.284211,21.633056 92.879645,17.929444 87.768171,16.773194 80.119087,15.15625 65.962841,14 50.646548,14 35.339314,14 20.956499,15.15625 13.29835,16.773194 8.195941,17.929444 3.7823098,21.398194 2.8578932,26.71875 1.9244166,32.5 1,40.59375 1,51 1,61.40625 1.9244166,69.5 3.0844673,75.28125 4.0179439,80.366944 8.422513,84.070556 13.524924,85.226806 21.645279,86.84375 35.565888,88 50.882182,88 66.198478,88 80.119087,86.84375 88.239442,85.226806 93.341851,84.070556 97.74642,80.601806 98.6799,75.28125 99.60431,69.5 100.76436,61.171388 101,51 100.52873,40.59375 99.36868,32.5 98.20863,26.71875 Z M 38.121624,67.1875 V 34.8125 L 66.42505,51 Z"
     id="path1"
     style="stroke-width:2.3163" />
</svg>
