<?xml version="1.0" encoding="UTF-8" standalone="no"?>
<svg
   viewBox="0 0 102 102"
   width="102"
   height="102"
   version="1.1"
   id="svg1"
   sodipodi:docname="icons8-whatsapp.svg"
   inkscape:version="1.4 (86a8ad7, 2024-10-11)"
   xmlns:inkscape="http://www.inkscape.org/namespaces/inkscape"
   xmlns:sodipodi="http://sodipodi.sourceforge.net/DTD/sodipodi-0.dtd"
   xmlns="http://www.w3.org/2000/svg"
   xmlns:svg="http://www.w3.org/2000/svg">
  <defs
     id="defs1" />
  <sodipodi:namedview
     id="namedview1"
     pagecolor="#ffffff"
     bordercolor="#000000"
     borderopacity="0.25"
     inkscape:showpageshadow="2"
     inkscape:pageopacity="0.0"
     inkscape:pagecheckerboard="0"
     inkscape:deskcolor="#d1d1d1"
     inkscape:zoom="5.7063517"
     inkscape:cx="60.020836"
     inkscape:cy="52.83586"
     inkscape:window-width="1920"
     inkscape:window-height="1009"
     inkscape:window-x="-8"
     inkscape:window-y="-8"
     inkscape:window-maximized="1"
     inkscape:current-layer="svg1" />
  <path
     d="M 51.000161,1 C 23.430685,1 1.0003223,23.430435 1.0003223,51 c 0,8.608696 2.2239059,17.073913 6.4412836,24.543478 L 1.0807568,98.23913 c -0.20869495,0.745653 -0.00652,1.54565 0.532607,2.1 C 2.0285798,100.76739 2.5937954,101 3.1742283,101 c 0.1739125,0 0.3499989,-0.0217 0.5217375,-0.063 L 27.382846,95.069565 C 34.615431,98.952174 42.761057,101 51.000161,101 78.569637,101 101,78.569565 101,51 101,23.430435 78.569637,1 51.000161,1 Z m 25.152093,67.643478 c -1.069562,2.96087 -6.19998,5.663044 -8.66519,6.026087 -2.213036,0.323913 -5.013027,0.463044 -8.08693,-0.502174 C 57.537096,73.580435 55.1458,72.802174 52.082766,71.495652 39.206721,66.004348 30.798052,53.202174 30.154576,52.356522 29.513274,51.51087 24.913289,45.484783 24.913289,39.247826 c 0,-6.236956 3.315206,-9.304348 4.493463,-10.573913 1.178257,-1.269565 2.567383,-1.586956 3.423902,-1.586956 0.856519,0 1.710864,0.01087 2.460862,0.04565 0.789128,0.03913 1.84782,-0.297826 2.889121,2.176087 1.069562,2.53913 3.636945,8.776087 3.954335,9.413043 0.321738,0.634783 0.534781,1.376087 0.108695,2.221739 -0.426085,0.845652 -0.639128,1.373913 -1.282604,2.115218 -0.643476,0.741304 -1.347822,1.652174 -1.926081,2.221739 -0.643476,0.632608 -1.310865,1.317391 -0.563042,2.586956 0.747824,1.269566 3.323903,5.419566 7.141282,8.780435 4.902158,4.317391 9.039101,5.656522 10.321706,6.291304 1.282604,0.634783 2.032602,0.528261 2.780425,-0.317391 0.747824,-0.847826 3.208686,-3.702174 4.063031,-4.969565 0.854345,-1.267391 1.710864,-1.058696 2.889121,-0.634783 1.178257,0.421739 7.489106,3.486957 8.771711,4.121739 1.282604,0.634783 2.139123,0.952174 2.460861,1.480435 0.321738,0.526087 0.321738,3.065218 -0.747823,6.023913 z"
     id="path1"
     style="stroke-width:2.17391" />
</svg>
