<?xml version="1.0" encoding="UTF-8" standalone="no"?>
<svg
   viewBox="0 0 102 102"
   width="102"
   height="102"
   version="1.1"
   id="svg1"
   sodipodi:docname="icons8-instagram.svg"
   inkscape:version="1.4 (86a8ad7, 2024-10-11)"
   xmlns:inkscape="http://www.inkscape.org/namespaces/inkscape"
   xmlns:sodipodi="http://sodipodi.sourceforge.net/DTD/sodipodi-0.dtd"
   xmlns="http://www.w3.org/2000/svg"
   xmlns:svg="http://www.w3.org/2000/svg">
  <defs
     id="defs1" />
  <sodipodi:namedview
     id="namedview1"
     pagecolor="#ffffff"
     bordercolor="#000000"
     borderopacity="0.25"
     inkscape:showpageshadow="2"
     inkscape:pageopacity="0.0"
     inkscape:pagecheckerboard="0"
     inkscape:deskcolor="#d1d1d1"
     inkscape:zoom="1.4265879"
     inkscape:cx="3.1543797"
     inkscape:cy="94.981877"
     inkscape:window-width="1920"
     inkscape:window-height="1009"
     inkscape:window-x="-8"
     inkscape:window-y="-8"
     inkscape:window-maximized="1"
     inkscape:current-layer="svg1" />
  <path
     d="M 30.545455,1 C 14.25,1 1,14.25 1,30.545455 v 40.90909 C 1,87.75 14.25,101 30.545455,101 h 40.90909 C 87.75,101 101,87.75 101,71.454545 V 30.545455 C 101,14.25 87.75,1 71.454545,1 Z m 47.727272,18.181818 c 2.5,0 4.545455,2.045455 4.545455,4.545455 0,2.5 -2.045455,4.545454 -4.545455,4.545454 -2.5,0 -4.545454,-2.045454 -4.545454,-4.545454 0,-2.5 2.045454,-4.545455 4.545454,-4.545455 z M 51,26 C 64.795455,26 76,37.204545 76,51 76,64.795455 64.795455,76 51,76 37.204545,76 26,64.795455 26,51 26,37.204545 37.204545,26 51,26 Z m 0,4.545455 C 39.727273,30.545455 30.545455,39.727273 30.545455,51 30.545455,62.272727 39.727273,71.454545 51,71.454545 62.272727,71.454545 71.454545,62.272727 71.454545,51 71.454545,39.727273 62.272727,30.545455 51,30.545455 Z"
     id="path1"
     style="stroke-width:2.27273" />
</svg>
