<?xml version="1.0" encoding="utf-8"?>
<!-- Generator: Adobe Illustrator 26.0.1, SVG Export Plug-In . SVG Version: 6.00 Build 0)  -->
<svg version="1.1" id="Layer_1" xmlns="http://www.w3.org/2000/svg" xmlns:xlink="http://www.w3.org/1999/xlink" x="0px" y="0px"
	 viewBox="0 0 173.64 20.04" style="enable-background:new 0 0 173.64 20.04;" xml:space="preserve">
<style type="text/css">
	.st0{fill:#ffffff;}
</style>
<g>
	<path class="st0" d="M7.35,10.87C5.75,10.26,5.04,9.9,5.05,9.1c0-0.65,0.6-1.19,1.82-1.19c1.23,0,2.11,0.35,2.61,0.59l0.64-2.27
		C9.38,5.89,8.34,5.6,6.93,5.59C3.99,5.58,2.21,7.21,2.2,9.34c-0.01,1.82,1.34,2.97,3.4,3.7c1.5,0.55,2.09,1,2.09,1.78
		c0,0.8-0.69,1.35-1.99,1.34c-1.2,0-2.37-0.4-3.13-0.8L2,17.69c0.69,0.4,2.11,0.77,3.53,0.77c3.42,0.01,5.04-1.76,5.05-3.85
		C10.59,12.85,9.56,11.7,7.35,10.87z"/>
	<path class="st0" d="M18.82,5.84l-0.05,12.48l2.84,0.01l0.05-12.48L18.82,5.84z"/>
	<path class="st0" d="M38.06,11.25l0.01,4.82c-0.22,0.1-0.75,0.18-1.39,0.17c-2.32-0.01-3.92-1.53-3.91-4.1
		c0.01-2.7,1.79-4.03,4.14-4.03c1.38,0.01,2.22,0.25,2.9,0.54l0.6-2.26c-0.61-0.3-1.84-0.62-3.46-0.62c-4.1-0.02-7.13,2.35-7.15,6.5
		c-0.03,1.83,0.59,3.47,1.73,4.54c1.15,1.11,2.8,1.7,5.07,1.71c1.65,0.01,3.31-0.39,4.18-0.69l0.03-6.57L38.06,11.25z"/>
	<path class="st0" d="M57.08,5.99l-0.01,3.65c-0.01,1.88,0.03,3.56,0.22,5.21l-0.07,0c-0.55-1.42-1.28-2.97-2.01-4.29l-2.59-4.59
		l-3.29-0.01l-0.05,12.48l2.6,0.01l0.01-3.75c0.01-2.05-0.02-3.8-0.09-5.45l0.05-0.03c0.61,1.47,1.42,3.08,2.16,4.42l2.64,4.82
		l2.97,0.01L59.67,6L57.08,5.99z"/>
	<path class="st0" d="M75.03,6.05l-3.71-0.01l-3.86,12.47l2.78,0.14c0,0,2.61-9.75,2.79-10.48l0.03,0c0.07,0.27,0.15,0.58,0.23,0.89
		c0.12,0.52,2.65,9.48,2.65,9.48l2.9,0.01L75.03,6.05z"/>
	<path class="st0" d="M84.37,6.09l-0.01,2.38l3.35,0.01l-0.04,10.11l2.84,0.01l0.04-10.11l3.41,0.01l0.01-2.38L84.37,6.09z"/>
	<path class="st0" d="M109.15,6.19l-0.03,7.2c-0.01,2.19-0.84,3.24-2.31,3.24c-1.45-0.01-2.25-1.11-2.24-3.26l0.03-7.2l-2.84-0.01
		l-0.03,6.97c-0.02,3.99,1.83,5.74,4.97,5.75c3.27,0.01,5.22-1.82,5.24-5.67l0.03-7.01L109.15,6.19z"/>
	<path class="st0" d="M129.08,15.24c-0.31-1.15-0.79-1.98-1.66-2.34l0-0.07c1.07-0.38,2.2-1.47,2.21-3.06c0-1.15-0.4-2.03-1.14-2.62
		c-0.88-0.71-2.18-0.99-4.04-1c-1.5-0.01-2.86,0.1-3.76,0.24l-0.05,12.32l2.8,0.01l0.02-4.9l0.84,0c1.15,0.02,1.69,0.45,2.01,2
		c0.37,1.54,0.66,2.57,0.86,2.91l2.89,0.01C129.84,18.27,129.45,16.64,129.08,15.24z M124.58,11.79l-1.11,0l0.01-3.45
		c0.2-0.04,0.6-0.09,1.28-0.09c1.3,0.02,2.08,0.61,2.07,1.75C126.83,11.09,126,11.79,124.58,11.79z"/>
	<path class="st0" d="M140.77,16.49l0.01-2.97l4.6,0.02l0.01-2.3l-4.6-0.02l0.01-2.59l4.87,0.02l0.01-2.32l-7.71-0.03l-0.05,12.48
		l7.98,0.03l0.01-2.3L140.77,16.49z"/>
	<path class="st0" d="M159.01,11.45c-1.61-0.61-2.32-0.97-2.32-1.77c0-0.65,0.6-1.19,1.82-1.19c1.23,0,2.11,0.35,2.61,0.59
		l0.64-2.27c-0.75-0.34-1.77-0.64-3.19-0.64c-2.94-0.01-4.73,1.61-4.74,3.74c-0.01,1.82,1.34,2.97,3.42,3.7
		c1.5,0.55,2.08,1,2.07,1.78c0,0.8-0.69,1.35-1.99,1.34c-1.19,0-2.35-0.4-3.13-0.8l-0.58,2.33c0.71,0.4,2.11,0.77,3.54,0.77
		c3.43,0.01,5.04-1.76,5.05-3.85C162.23,13.44,161.2,12.28,159.01,11.45z"/>
	<path class="st0" d="M169.56,1l-3.21,1.39l-0.46,2.36l2.8-1.35l0.02,0l-1.75,9.13l2.47,0.01l2.21-11.53L169.56,1z"/>
	<path class="st0" d="M73.68,10.57c-0.14-0.46-0.27-0.98-0.4-1.5L73.68,10.57z"/>
</g>
</svg>
