<svg width="140" height="140" viewBox="0 0 181 182" fill="none" xmlns="http://www.w3.org/2000/svg">
<path d="M0.678436 181.038L13.3562 134.723C5.5331 121.166 1.42242 105.798 1.42993 90.0389C1.45248
 40.7708 41.5448 0.678406 90.8054 0.678406C114.711 0.685921 137.15 9.99697 154.029 26.8906C170.9
  43.7843 180.188 66.239 180.181 90.1216C180.158 139.397 140.066 179.49 90.8054 179.49C75.8507
   179.482 61.1138 175.732 48.0603 168.608L0.678436 181.038ZM50.2547 152.428C62.8498 159.906 
   74.8737 164.384 90.7754 164.392C131.717 164.392 165.068 131.071 165.091 90.1065C165.106
    49.0598 131.912 15.7835 90.8355 15.7685C49.8639 15.7685 16.535 49.0898 16.52 
    90.0464C16.5125 106.767 21.4122 119.287 29.6411 132.386L22.1337 159.8L50.2547
     152.428ZM135.828 111.366C135.272 110.435 133.784 109.878 131.544 108.759C129.312 107.639 
     118.333 102.236 116.281 101.492C114.237 100.748 112.749 100.372 111.254 102.611C109.766 
     104.843 105.482 109.878 104.182 111.366C102.882 112.854 101.574 113.042 99.3424 
     111.922C97.1105 110.803 89.9111 108.451 81.3817 100.838C74.7459 94.9161 70.2595 
     87.604 68.9594 85.3646C67.6593 83.1326 68.8242 81.9227 69.9364 80.8105C70.9434 
     79.811 72.1683 78.2028 73.288 76.8952C74.4228 75.6026 74.791 74.6708 75.5425 
     73.1753C76.2865 71.6873 75.9183 70.3797 75.3547 69.26C74.791 68.1478 70.3271 
     57.1534 68.471 52.682C66.6523 48.3308 64.8112 48.917 63.4434 48.8494L59.1599 
     48.7742C57.6719 48.7742 55.2521 49.3303 53.2081 51.5698C51.164 53.8092 45.3925
      59.205 45.3925 70.1994C45.3925 81.1938 53.3959 91.8124 54.5081 93.3004C55.6279
       94.7884 70.252 117.348 92.6541 127.02C97.9822 129.32 102.146 130.695 105.384 131.724C110.735 
       133.423 115.605 133.182 119.452 132.611C123.744 131.972 132.664 127.208 134.528
    121.993C136.391 116.77 136.391 112.298 135.828 111.366Z" fill="#fff"/>
</svg>
