<svg width="501" height="538" viewBox="0 0 501 538" fill="none" xmlns="http://www.w3.org/2000/svg">
<circle cx="250.791" cy="287.03" r="250" fill="url(#paint0_radial_831_320)"/>
<circle cx="250.791" cy="287.03" r="250" fill="url(#paint1_radial_831_320)" style="mix-blend-mode:overlay"/>
<circle cx="250.791" cy="287.03" r="250" fill="url(#paint2_radial_831_320)" style="mix-blend-mode:soft-light"/>
<g filter="url(#filter0_f_831_320)">
<ellipse cx="269.654" cy="173.061" rx="54.5436" ry="108.222" transform="rotate(-76.4765 269.654 173.061)" fill="#F93F21"/>
</g>
<g filter="url(#filter1_f_831_320)">
<circle cx="136.145" cy="233.036" r="8.13609" fill="white"/>
</g>
<g filter="url(#filter2_f_831_320)">
<ellipse cx="201.814" cy="121.873" rx="6.56037" ry="4.51026" transform="rotate(-9.88469 201.814 121.873)" fill="white"/>
</g>
<g filter="url(#filter3_f_831_320)">
<ellipse cx="222.819" cy="118.212" rx="10.6606" ry="6.97039" transform="rotate(-9.88469 222.819 118.212)" fill="white"/>
</g>
<g filter="url(#filter4_f_831_320)">
<path fill-rule="evenodd" clip-rule="evenodd" d="M177.707 186.714C179.806 185.982 181.592 184.759 182.983 183.218C184.052 182.033 186.238 181.912 187.517 182.867C190.047 184.755 193.439 185.393 196.644 184.275C201.772 182.487 204.479 176.88 202.691 171.752C200.902 166.624 195.296 163.917 190.168 165.706C189.306 166.006 188.513 166.414 187.797 166.91C186.485 167.82 184.304 167.623 183.275 166.402C179.957 162.468 174.437 160.778 169.288 162.573C162.622 164.898 159.102 172.187 161.427 178.853C163.752 185.52 171.041 189.039 177.707 186.714ZM227.623 178.688C227.116 179.2 226.031 178.955 225.794 178.275C224.005 173.147 218.399 170.44 213.271 172.228C208.143 174.017 205.435 179.623 207.224 184.751C209.012 189.879 214.619 192.587 219.747 190.798C221.207 190.289 222.47 189.471 223.489 188.442C223.996 187.931 225.081 188.175 225.319 188.855C227.107 193.983 232.714 196.69 237.842 194.902C238.876 194.542 240.088 194.908 240.866 195.678C242.81 197.598 246.006 198.303 249.07 197.235C249.47 197.095 249.853 196.93 250.218 196.743C251.369 196.153 252.989 196.315 254.074 197.02C255.34 197.841 257.065 198.497 259.019 198.82C263.305 199.529 267.068 198.367 267.422 196.223C267.777 194.08 264.589 191.768 260.303 191.059C259.385 190.907 258.492 190.841 257.651 190.852C256.199 190.871 254.709 189.516 254.231 188.145C252.979 184.555 248.639 182.805 244.536 184.236C244.441 184.269 244.338 184.208 244.322 184.108C244.232 183.53 244.088 182.951 243.889 182.379C242.1 177.251 236.493 174.544 231.365 176.332C229.906 176.841 228.642 177.66 227.623 178.688ZM323.96 224.514C325.749 229.641 323.042 235.248 317.914 237.037C312.786 238.825 307.179 236.118 305.39 230.99C305.176 230.375 305.026 229.753 304.937 229.131C304.728 227.666 303.315 226.365 301.844 226.204C299.149 225.908 296.834 224.31 295.974 221.845C295.801 221.349 295.696 220.843 295.654 220.336C295.526 218.766 294.322 216.952 292.768 216.698C292.755 216.696 292.741 216.694 292.728 216.692C288.442 215.983 285.254 213.671 285.609 211.528C285.963 209.385 289.725 208.222 294.012 208.931C297.334 209.48 299.997 210.993 300.861 212.644C300.913 212.743 301.029 212.792 301.135 212.755C305.238 211.325 309.578 213.075 310.83 216.664C311.015 217.196 311.122 217.737 311.157 218.279C311.166 218.418 311.306 218.512 311.437 218.467C316.565 216.678 322.172 219.386 323.96 224.514Z" fill="white" fill-opacity="0.5"/>
</g>
<mask id="mask0_831_320" style="mask-type:alpha" maskUnits="userSpaceOnUse" x="0" y="37" width="501" height="501">
<circle cx="250.791" cy="287.03" r="250" fill="url(#paint3_radial_831_320)"/>
<circle cx="250.791" cy="287.03" r="250" fill="url(#paint4_radial_831_320)"/>
<circle cx="250.791" cy="287.03" r="250" fill="url(#paint5_radial_831_320)"/>
</mask>
<g mask="url(#mask0_831_320)">
<g filter="url(#filter5_f_831_320)">
<path d="M446.296 224.9C446.296 224.9 497.996 301.752 500.791 335.986C437.912 686.01 113.913 661.509 215.741 564.444C342.282 443.823 446.296 439.371 446.296 224.9Z" fill="white" fill-opacity="0.08"/>
</g>
</g>
<defs>
<filter id="filter0_f_831_320" x="49.9879" y="0.62352" width="439.332" height="344.875" filterUnits="userSpaceOnUse" color-interpolation-filters="sRGB">
<feFlood flood-opacity="0" result="BackgroundImageFix"/>
<feBlend mode="normal" in="SourceGraphic" in2="BackgroundImageFix" result="shape"/>
<feGaussianBlur stdDeviation="56.8317" result="effect1_foregroundBlur_831_320"/>
</filter>
<filter id="filter1_f_831_320" x="121.947" y="218.838" width="28.3961" height="28.3963" filterUnits="userSpaceOnUse" color-interpolation-filters="sRGB">
<feFlood flood-opacity="0" result="BackgroundImageFix"/>
<feBlend mode="normal" in="SourceGraphic" in2="BackgroundImageFix" result="shape"/>
<feGaussianBlur stdDeviation="3.03102" result="effect1_foregroundBlur_831_320"/>
</filter>
<filter id="filter2_f_831_320" x="189.243" y="111.226" width="25.1436" height="21.2939" filterUnits="userSpaceOnUse" color-interpolation-filters="sRGB">
<feFlood flood-opacity="0" result="BackgroundImageFix"/>
<feBlend mode="normal" in="SourceGraphic" in2="BackgroundImageFix" result="shape"/>
<feGaussianBlur stdDeviation="3.03102" result="effect1_foregroundBlur_831_320"/>
</filter>
<filter id="filter3_f_831_320" x="206.186" y="105.042" width="33.2667" height="26.3408" filterUnits="userSpaceOnUse" color-interpolation-filters="sRGB">
<feFlood flood-opacity="0" result="BackgroundImageFix"/>
<feBlend mode="normal" in="SourceGraphic" in2="BackgroundImageFix" result="shape"/>
<feGaussianBlur stdDeviation="3.03102" result="effect1_foregroundBlur_831_320"/>
</filter>
<filter id="filter4_f_831_320" x="154.666" y="155.812" width="175.89" height="87.8202" filterUnits="userSpaceOnUse" color-interpolation-filters="sRGB">
<feFlood flood-opacity="0" result="BackgroundImageFix"/>
<feBlend mode="normal" in="SourceGraphic" in2="BackgroundImageFix" result="shape"/>
<feGaussianBlur stdDeviation="3.02226" result="effect1_foregroundBlur_831_320"/>
</filter>
<filter id="filter5_f_831_320" x="186.999" y="215.807" width="322.885" height="420.392" filterUnits="userSpaceOnUse" color-interpolation-filters="sRGB">
<feFlood flood-opacity="0" result="BackgroundImageFix"/>
<feBlend mode="normal" in="SourceGraphic" in2="BackgroundImageFix" result="shape"/>
<feGaussianBlur stdDeviation="4.54654" result="effect1_foregroundBlur_831_320"/>
</filter>
<radialGradient id="paint0_radial_831_320" cx="0" cy="0" r="1" gradientUnits="userSpaceOnUse" gradientTransform="translate(177.566 235.255) rotate(25.085) scale(563.505 547.011)">
<stop offset="0.354167" stop-color="#F93F21"/>
<stop offset="0.810035" stop-color="#7F212D"/>
</radialGradient>
<radialGradient id="paint1_radial_831_320" cx="0" cy="0" r="1" gradientUnits="userSpaceOnUse" gradientTransform="translate(133.927 440.136) rotate(-53.858) scale(326.062 364.401)">
<stop stop-opacity="0.61"/>
<stop offset="1" stop-opacity="0"/>
</radialGradient>
<radialGradient id="paint2_radial_831_320" cx="0" cy="0" r="1" gradientUnits="userSpaceOnUse" gradientTransform="translate(405.376 287.03) rotate(180) scale(426.775 343.375)">
<stop stop-color="white" stop-opacity="0"/>
<stop offset="0.827012" stop-color="white" stop-opacity="0"/>
<stop offset="1" stop-color="white"/>
</radialGradient>
<radialGradient id="paint3_radial_831_320" cx="0" cy="0" r="1" gradientUnits="userSpaceOnUse" gradientTransform="translate(177.566 235.255) rotate(25.085) scale(563.505 547.011)">
<stop offset="0.354167" stop-color="#E24171"/>
<stop offset="0.810035" stop-color="#7F212D"/>
</radialGradient>
<radialGradient id="paint4_radial_831_320" cx="0" cy="0" r="1" gradientUnits="userSpaceOnUse" gradientTransform="translate(133.927 440.136) rotate(-53.858) scale(326.062 364.401)">
<stop stop-opacity="0.61"/>
<stop offset="1" stop-opacity="0"/>
</radialGradient>
<radialGradient id="paint5_radial_831_320" cx="0" cy="0" r="1" gradientUnits="userSpaceOnUse" gradientTransform="translate(405.376 287.03) rotate(180) scale(426.775 343.375)">
<stop stop-color="white" stop-opacity="0"/>
<stop offset="0.827012" stop-color="white" stop-opacity="0"/>
<stop offset="1" stop-color="white"/>
</radialGradient>
</defs>
</svg>
